<svg width="228" height="27" viewBox="0 0 228 27" fill="none" xmlns="http://www.w3.org/2000/svg">
<path d="M17.919 25.0889C17.4515 21.6518 14.2175 9.65303 0.639293 10.0308L17.919 25.0889Z" fill="#E61F12"/>
<path d="M0.547329 10.0325C0.541698 10.0323 0.535886 10.0322 0.53064 10.0329C0.53064 10.0329 1.2197 28.1128 17.5136 26.0578L0.547329 10.0325Z" fill="#E61F12"/>
<path d="M18.4416 23.9804C16.8609 20.7266 12.7351 8.44789 24.735 0.930653L18.4416 23.9804Z" fill="#E61F12"/>
<path d="M24.816 0.87974C24.8213 0.876991 24.8258 0.873507 24.8311 0.870758C24.8311 0.870758 34.6781 16.9572 19.3529 24.5861L24.816 0.87974Z" fill="#E61F12"/>
<path d="M37.3714 24.0616H34.1879L40.6254 6.95763H43.3742L49.8352 24.0616H46.6517L45.3008 20.1498H38.7223L37.3714 24.0616ZM39.5681 17.7063H44.4432L41.9998 10.658L39.5681 17.7063Z" fill="#E61F12"/>
<path d="M58.0113 11.3511H61.0303L56.6369 24.0616H54.0407L49.612 11.3511H52.6428L55.3447 20.3964L58.0113 11.3511Z" fill="#E61F12"/>
<path d="M69.7115 15.4744C69.7115 14.8165 69.5275 14.2918 69.1594 13.9002C68.7991 13.5087 68.2509 13.3129 67.5148 13.3129C66.8491 13.3129 66.3166 13.4773 65.9172 13.8063C65.5256 14.1352 65.3298 14.5463 65.3298 15.0397H62.4165C62.4165 14.3584 62.6318 13.7201 63.0626 13.1249C63.4933 12.5219 64.1003 12.0363 64.8834 11.6683C65.6744 11.3002 66.6063 11.1161 67.6792 11.1161C69.1124 11.1161 70.295 11.4803 71.2269 12.2086C72.1588 12.937 72.6248 14.0334 72.6248 15.4979V21.1013C72.6248 22.2603 72.7893 23.1805 73.1182 23.8619V24.0616H70.1344C70.0013 23.764 69.8955 23.3607 69.8172 22.8516C69.4492 23.251 68.9832 23.5917 68.4193 23.8736C67.8633 24.1556 67.2054 24.2965 66.4458 24.2965C65.6156 24.2965 64.8756 24.1321 64.2256 23.8031C63.5755 23.4742 63.0626 23.0239 62.6867 22.4522C62.3186 21.8805 62.1346 21.2305 62.1346 20.5022C62.1346 19.1552 62.6397 18.1214 63.6499 17.4009C64.6602 16.6804 66.0934 16.3202 67.9494 16.3202H69.7115V15.4744ZM67.0214 21.9823C67.6792 21.9823 68.2431 21.8296 68.713 21.5242C69.1829 21.2109 69.5157 20.8624 69.7115 20.4787V18.1175H68.1609C67.1271 18.1175 66.3479 18.3094 65.8232 18.6931C65.3063 19.069 65.0479 19.582 65.0479 20.232C65.0479 20.7332 65.2162 21.1522 65.553 21.4889C65.8976 21.8179 66.387 21.9823 67.0214 21.9823Z" fill="#E61F12"/>
<path d="M75.0447 17.6006C75.0447 16.3162 75.2444 15.1885 75.6439 14.2174C76.0511 13.2385 76.6267 12.4788 77.3707 11.9385C78.1147 11.3902 79.0075 11.1161 80.0491 11.1161C80.7382 11.1161 81.3491 11.2414 81.8816 11.4921C82.422 11.7348 82.8919 12.0833 83.2913 12.5376V6.01785H86.2046V24.0616H83.5615L83.4205 22.7106C83.0211 23.2119 82.5395 23.6034 81.9756 23.8854C81.4117 24.1595 80.7617 24.2965 80.0256 24.2965C78.9996 24.2965 78.1147 24.0185 77.3707 23.4625C76.6267 22.8986 76.0511 22.1311 75.6439 21.16C75.2444 20.1889 75.0447 19.0847 75.0447 17.8473V17.6006ZM77.9581 17.8473C77.9581 18.5991 78.052 19.2844 78.24 19.9031C78.4279 20.5139 78.7255 21.0034 79.1328 21.3715C79.5478 21.7317 80.0921 21.9118 80.7656 21.9118C81.3922 21.9118 81.909 21.7709 82.3163 21.4889C82.7313 21.207 83.0563 20.835 83.2913 20.373V15.0045C83.0563 14.5424 82.7313 14.1783 82.3163 13.912C81.909 13.6379 81.4 13.5008 80.7891 13.5008C80.1156 13.5008 79.5713 13.6849 79.1563 14.0529C78.7412 14.421 78.4358 14.9144 78.24 15.5331C78.052 16.1518 77.9581 16.841 77.9581 17.6006V17.8473Z" fill="#E61F12"/>
<path d="M96.2837 15.4744C96.2837 14.8165 96.0997 14.2918 95.7316 13.9002C95.3713 13.5087 94.8231 13.3129 94.087 13.3129C93.4213 13.3129 92.8888 13.4773 92.4894 13.8063C92.0978 14.1352 91.902 14.5463 91.902 15.0397H88.9887C88.9887 14.3584 89.2041 13.7201 89.6348 13.1249C90.0655 12.5219 90.6725 12.0363 91.4556 11.6683C92.2466 11.3002 93.1785 11.1161 94.2514 11.1161C95.6846 11.1161 96.8672 11.4803 97.7991 12.2086C98.731 12.937 99.197 14.0334 99.197 15.4979V21.1013C99.197 22.2603 99.3615 23.1805 99.6904 23.8619V24.0616H96.7066C96.5735 23.764 96.4677 23.3607 96.3894 22.8516C96.0214 23.251 95.5554 23.5917 94.9915 23.8736C94.4355 24.1556 93.7776 24.2965 93.018 24.2965C92.1878 24.2965 91.4478 24.1321 90.7978 23.8031C90.1477 23.4742 89.6348 23.0239 89.2589 22.4522C88.8908 21.8805 88.7068 21.2305 88.7068 20.5022C88.7068 19.1552 89.2119 18.1214 90.2221 17.4009C91.2324 16.6804 92.6656 16.3202 94.5216 16.3202H96.2837V15.4744ZM93.5936 21.9823C94.2514 21.9823 94.8153 21.8296 95.2852 21.5242C95.7551 21.2109 96.0879 20.8624 96.2837 20.4787V18.1175H94.7331C93.6993 18.1175 92.9201 18.3094 92.3954 18.6931C91.8785 19.069 91.6201 19.582 91.6201 20.232C91.6201 20.7332 91.7884 21.1522 92.1252 21.4889C92.4698 21.8179 92.9592 21.9823 93.5936 21.9823Z" fill="#E61F12"/>
<path d="M122.022 24.0616H118.979L111.438 12.0089V24.0616H108.407V6.95763H111.438L119.003 19.0338V6.95763H122.022V24.0616Z" fill="#E61F12"/>
<path d="M132.829 11.3511H135.743V24.0616H132.994L132.923 22.7811C132.524 23.2589 132.03 23.6308 131.443 23.8971C130.856 24.1634 130.159 24.2965 129.352 24.2965C128.099 24.2965 127.085 23.9284 126.31 23.1923C125.534 22.4561 125.147 21.2462 125.147 19.5624V11.3511H128.06V19.5859C128.06 20.4708 128.26 21.0817 128.659 21.4185C129.058 21.7474 129.532 21.9118 130.08 21.9118C130.801 21.9118 131.38 21.7826 131.819 21.5242C132.265 21.2579 132.602 20.9016 132.829 20.4552V11.3511Z" fill="#E61F12"/>
<path d="M144.494 13.5008H142.239V20.4787C142.239 21.0582 142.36 21.438 142.603 21.6182C142.846 21.7905 143.171 21.8766 143.578 21.8766C143.774 21.8766 143.962 21.8648 144.142 21.8414C144.322 21.8179 144.467 21.7944 144.577 21.7709V24.0146C144.342 24.0929 144.067 24.1595 143.754 24.2143C143.441 24.2691 143.081 24.2965 142.673 24.2965C141.695 24.2965 140.892 24.0263 140.265 23.486C139.639 22.9378 139.326 22.0058 139.326 20.6901V13.5008H137.281V11.3511H139.326V8.23808H142.239V11.3511H144.494V13.5008Z" fill="#E61F12"/>
<path d="M149.557 24.0616H146.644V11.3511H149.416L149.499 12.8195C149.82 12.2948 150.219 11.8797 150.697 11.5743C151.182 11.2689 151.75 11.1161 152.4 11.1161C152.565 11.1161 152.749 11.1318 152.952 11.1631C153.156 11.1945 153.309 11.2297 153.41 11.2689L153.387 14.0295C153.207 14.006 153.015 13.9864 152.811 13.9707C152.616 13.9472 152.42 13.9355 152.224 13.9355C151.535 13.9355 150.971 14.0686 150.532 14.3349C150.094 14.6012 149.769 14.9771 149.557 15.4626V24.0616Z" fill="#E61F12"/>
<path d="M155.173 8.02663C155.173 7.58023 155.317 7.21215 155.607 6.92239C155.897 6.62479 156.3 6.47599 156.817 6.47599C157.334 6.47599 157.741 6.62479 158.039 6.92239C158.336 7.21215 158.485 7.58023 158.485 8.02663C158.485 8.46519 158.336 8.83327 158.039 9.13087C157.741 9.42063 157.334 9.56551 156.817 9.56551C156.3 9.56551 155.897 9.42063 155.607 9.13087C155.317 8.83327 155.173 8.46519 155.173 8.02663ZM158.274 24.0616H155.36V11.3511H158.274V24.0616Z" fill="#E61F12"/>
<path d="M167.237 13.5008H164.981V20.4787C164.981 21.0582 165.103 21.438 165.346 21.6182C165.588 21.7905 165.913 21.8766 166.321 21.8766C166.516 21.8766 166.704 21.8648 166.884 21.8414C167.065 21.8179 167.209 21.7944 167.319 21.7709V24.0146C167.084 24.0929 166.81 24.1595 166.497 24.2143C166.184 24.2691 165.823 24.2965 165.416 24.2965C164.437 24.2965 163.634 24.0263 163.008 23.486C162.381 22.9378 162.068 22.0058 162.068 20.6901V13.5008H160.024V11.3511H162.068V8.23808H164.981V11.3511H167.237V13.5008Z" fill="#E61F12"/>
<path d="M169.387 8.02663C169.387 7.58023 169.532 7.21215 169.821 6.92239C170.111 6.62479 170.514 6.47599 171.031 6.47599C171.548 6.47599 171.955 6.62479 172.253 6.92239C172.551 7.21215 172.699 7.58023 172.699 8.02663C172.699 8.46519 172.551 8.83327 172.253 9.13087C171.955 9.42063 171.548 9.56551 171.031 9.56551C170.514 9.56551 170.111 9.42063 169.821 9.13087C169.532 8.83327 169.387 8.46519 169.387 8.02663ZM172.488 24.0616H169.575V11.3511H172.488V24.0616Z" fill="#E61F12"/>
<path d="M175.025 17.5889C175.025 16.3515 175.26 15.2473 175.73 14.2761C176.2 13.2972 176.874 12.5258 177.751 11.9619C178.636 11.3981 179.697 11.1161 180.934 11.1161C182.187 11.1161 183.256 11.3981 184.141 11.9619C185.026 12.5258 185.7 13.2972 186.162 14.2761C186.632 15.2473 186.867 16.3515 186.867 17.5889V17.8356C186.867 19.0651 186.632 20.1693 186.162 21.1483C185.7 22.1194 185.026 22.8869 184.141 23.4507C183.264 24.0146 182.203 24.2965 180.958 24.2965C179.712 24.2965 178.647 24.0146 177.762 23.4507C176.877 22.8869 176.2 22.1194 175.73 21.1483C175.26 20.1693 175.025 19.0651 175.025 17.8356V17.5889ZM177.939 17.8356C177.939 18.5874 178.04 19.2765 178.244 19.9031C178.456 20.5218 178.784 21.019 179.231 21.395C179.677 21.7709 180.253 21.9588 180.958 21.9588C181.655 21.9588 182.222 21.7709 182.661 21.395C183.107 21.019 183.432 20.5218 183.636 19.9031C183.847 19.2765 183.953 18.5874 183.953 17.8356V17.5889C183.953 16.8527 183.847 16.1714 183.636 15.5448C183.432 14.9183 183.107 14.4132 182.661 14.0295C182.215 13.6457 181.639 13.4538 180.934 13.4538C180.237 13.4538 179.665 13.6457 179.219 14.0295C178.781 14.4132 178.456 14.9183 178.244 15.5448C178.04 16.1714 177.939 16.8527 177.939 17.5889V17.8356Z" fill="#E61F12"/>
<path d="M192.118 24.0616H189.204V11.3511H191.941L192.035 12.8547C192.482 12.2987 193.018 11.8719 193.645 11.5743C194.271 11.2689 194.968 11.1161 195.736 11.1161C196.957 11.1161 197.936 11.4764 198.672 12.1969C199.416 12.9096 199.788 14.1352 199.788 15.8738V24.0616H196.863V15.8503C196.863 14.9653 196.672 14.3545 196.288 14.0177C195.912 13.6731 195.364 13.5008 194.643 13.5008C194.064 13.5008 193.559 13.6418 193.128 13.9237C192.705 14.1978 192.368 14.5698 192.118 15.0397V24.0616Z" fill="#E61F12"/>
<path d="M202.655 8.02663C202.655 7.58023 202.8 7.21215 203.089 6.92239C203.379 6.62479 203.782 6.47599 204.299 6.47599C204.816 6.47599 205.223 6.62479 205.521 6.92239C205.819 7.21215 205.967 7.58023 205.967 8.02663C205.967 8.46519 205.819 8.83327 205.521 9.13087C205.223 9.42063 204.816 9.56551 204.299 9.56551C203.782 9.56551 203.379 9.42063 203.089 9.13087C202.8 8.83327 202.655 8.46519 202.655 8.02663ZM205.756 24.0616H202.843V11.3511H205.756V24.0616Z" fill="#E61F12"/>
<path d="M215.929 20.5961C215.929 20.3299 215.859 20.0871 215.718 19.8678C215.577 19.6407 215.31 19.4371 214.919 19.257C214.527 19.0768 213.956 18.9046 213.204 18.7401C211.857 18.4582 210.76 18.0274 209.915 17.4479C209.077 16.8684 208.658 16.0421 208.658 14.9692C208.658 14.2801 208.853 13.6457 209.245 13.0662C209.644 12.4788 210.212 12.0089 210.948 11.6565C211.684 11.2963 212.562 11.1161 213.58 11.1161C214.645 11.1161 215.561 11.2963 216.329 11.6565C217.096 12.0089 217.683 12.4906 218.091 13.1014C218.506 13.7044 218.713 14.3897 218.713 15.1572H215.8C215.8 14.656 215.612 14.2174 215.236 13.8415C214.868 13.4578 214.312 13.2659 213.568 13.2659C212.871 13.2659 212.35 13.4264 212.006 13.7475C211.661 14.0608 211.489 14.4249 211.489 14.84C211.489 15.2551 211.665 15.5918 212.017 15.8503C212.378 16.1009 213.063 16.3319 214.073 16.5434C215.53 16.8488 216.677 17.2874 217.515 17.859C218.361 18.4229 218.784 19.2883 218.784 20.4552C218.784 21.1992 218.568 21.8609 218.138 22.4405C217.715 23.02 217.116 23.4742 216.34 23.8031C215.565 24.1321 214.657 24.2965 213.615 24.2965C212.448 24.2965 211.465 24.089 210.666 23.6739C209.868 23.2589 209.261 22.7263 208.846 22.0763C208.438 21.4263 208.235 20.7567 208.235 20.0675H211.042C211.081 20.8272 211.367 21.3636 211.9 21.6769C212.432 21.9902 213.016 22.1468 213.65 22.1468C214.394 22.1468 214.958 22.0019 215.342 21.7121C215.733 21.4145 215.929 21.0425 215.929 20.5961Z" fill="#E61F12"/>
<path d="M227.124 13.5008H224.869V20.4787C224.869 21.0582 224.99 21.438 225.233 21.6182C225.476 21.7905 225.801 21.8766 226.208 21.8766C226.404 21.8766 226.592 21.8648 226.772 21.8414C226.952 21.8179 227.097 21.7944 227.206 21.7709V24.0146C226.972 24.0929 226.697 24.1595 226.384 24.2143C226.071 24.2691 225.711 24.2965 225.303 24.2965C224.324 24.2965 223.522 24.0263 222.895 23.486C222.269 22.9378 221.955 22.0058 221.955 20.6901V13.5008H219.911V11.3511H221.955V8.23808H224.869V11.3511H227.124V13.5008Z" fill="#E61F12"/>
</svg>
